<svg xmlns="http://www.w3.org/2000/svg" viewBox="0 0 900 900">
  <defs>
    <clipPath id="boardClip">
      <rect x="0" y="0" width="900" height="900" rx="0" />
    </clipPath>
  </defs>

  <rect width="900" height="900" fill="#e8e8e8" />

  <g clip-path="url(#boardClip)">
    <rect x="0" y="0" width="100" height="100" fill="#ee8682" />
    <rect x="400" y="0" width="100" height="100" fill="#87b4e6" />
    <rect x="600" y="100" width="100" height="100" fill="#cbe59a" />
    <rect x="700" y="100" width="100" height="100" fill="#e8c084" />
    <rect x="0" y="500" width="100" height="100" fill="#86b4e5" />
    <rect x="800" y="700" width="100" height="100" fill="#ef8783" />
    <rect x="300" y="700" width="100" height="100" fill="#f0dc7b" />
    <rect x="100" y="800" width="100" height="100" fill="#d7a0e3" />

    <g fill="#8b86e6">
      <rect x="100" y="200" width="100" height="100" />
      <rect x="200" y="200" width="100" height="100" />
      <rect x="300" y="200" width="100" height="100" />
      <rect x="500" y="200" width="100" height="100" />
      <rect x="600" y="200" width="100" height="100" />
      <rect x="700" y="200" width="100" height="100" />
      <rect x="100" y="300" width="100" height="100" />
      <rect x="500" y="300" width="100" height="100" />
      <rect x="700" y="300" width="100" height="100" />
      <rect x="100" y="400" width="100" height="100" />
      <rect x="200" y="400" width="100" height="100" />
      <rect x="300" y="400" width="100" height="100" />
      <rect x="500" y="400" width="100" height="100" />
      <rect x="600" y="400" width="100" height="100" />
      <rect x="700" y="400" width="100" height="100" />
      <rect x="300" y="500" width="100" height="100" />
      <rect x="500" y="500" width="100" height="100" />
      <rect x="100" y="600" width="100" height="100" />
      <rect x="200" y="600" width="100" height="100" />
      <rect x="300" y="600" width="100" height="100" />
      <rect x="500" y="600" width="100" height="100" />
    </g>

    <g fill="none" stroke-linecap="round" stroke-linejoin="round">
      <path d="M150 50h100v200h100" stroke="#38a7df" stroke-width="8" opacity="0.9" />
      <path d="M700 150h-50v100" stroke="#60df58" stroke-width="16" opacity="0.92" />
      <path d="M50 350v300" stroke="#e05ad8" stroke-width="14" opacity="0.92" />
      <path d="M750 650l-100 100h100l-100 100" stroke="#3ba8df" stroke-width="8" opacity="0.92" />
      <path d="M750 350v100" stroke="#c8c8c8" stroke-width="28" opacity="0.9" />
      <path d="M450 450v-50h50" stroke="#b7b7b7" stroke-width="7" opacity="0.9" />
    </g>

    <g fill="none" stroke="#000" stroke-linecap="round" stroke-linejoin="round">
      <path d="M360 30a34 34 0 1 0 0 60a24 24 0 1 1 18-52" stroke-width="10" fill="#000" />
      <path d="M30 320a28 28 0 1 0 0 52a20 20 0 1 1 14-45" stroke-width="10" fill="#000" />
      <circle cx="450" cy="350" r="34" stroke-width="8" />
      <circle cx="540" cy="860" r="36" stroke-width="8" />
      <rect x="420" y="810" width="52" height="52" rx="6" stroke-width="8" />
      <path d="M835 318l10 30h31l-25 18l10 30l-26-19l-26 19l10-30l-25-18h31z" stroke-width="7" />
      <path d="M820 530c0-18 14-32 30-32c10 0 18 5 24 13c6-8 14-13 24-13c16 0 30 14 30 32c0 29-31 47-54 68c-23-21-54-39-54-68Z" stroke-width="8" fill="none" transform="translate(-30 20) scale(0.9)" />
      <path d="M815 830l22-38l22 38Z" stroke-width="8" />
      <path d="M820 430l35 35l-35 35l-35-35Z" stroke-width="4" opacity="0.9" />
      <path d="M640 250l18 12l22-5l8 21l14 17l-14 17l-8 21l-22-5l-18 12l-18-12l-22 5l-8-21l-14-17l14-17l8-21l22 5Z" stroke-width="3.5" fill="#b0a9ff" />
      <path d="M330 630l38 38M368 630l-38 38" stroke-width="6" />
      <path d="M135 395l32 32M167 395l-32 32" stroke-width="5" />
      <path d="M185 125l18 18M203 125l-18 18" stroke="#3ba8df" stroke-width="5" />
      <path d="M106 135v38" stroke-width="4" />
      <path d="M98 160h16" stroke-width="4" />
      <path d="M40 425h18M49 416v18" stroke-width="6" />
    </g>

    <g fill="#000">
      <circle cx="150" cy="800" r="16" />
      <circle cx="500" cy="800" r="5" />
      <circle cx="50" cy="360" r="7" fill="#e05ad8" />
      <circle cx="685" cy="250" r="7" fill="#60df58" />
    </g>

    <circle cx="450" cy="550" r="42" fill="#ececec" stroke="#b7b7b7" stroke-width="3" />
    <circle cx="500" cy="800" r="30" fill="#f5f5f5" stroke="#000" stroke-width="2" />
    <text x="500" y="810" font-family="Barlow, Trebuchet MS, sans-serif" font-size="28" font-weight="700" text-anchor="middle" fill="#111">9</text>
  </g>

  <g stroke="#111">
    <rect x="0" y="0" width="900" height="900" fill="none" stroke-width="5" />
    <g stroke-width="2.5" opacity="0.95">
      <path d="M100 0v900" />
      <path d="M200 0v900" />
      <path d="M300 0v900" />
      <path d="M400 0v900" />
      <path d="M500 0v900" />
      <path d="M600 0v900" />
      <path d="M700 0v900" />
      <path d="M800 0v900" />
      <path d="M0 100h900" />
      <path d="M0 200h900" />
      <path d="M0 300h900" />
      <path d="M0 400h900" />
      <path d="M0 500h900" />
      <path d="M0 600h900" />
      <path d="M0 700h900" />
      <path d="M0 800h900" />
    </g>
    <g stroke-width="7">
      <path d="M300 0v900" />
      <path d="M600 0v900" />
      <path d="M0 300h900" />
      <path d="M0 600h900" />
    </g>
  </g>
</svg>
